<?xml version="1.0" standalone="no"?>
<!DOCTYPE svg PUBLIC "-//W3C//DTD SVG 20010904//EN"
 "http://www.w3.org/TR/2001/REC-SVG-20010904/DTD/svg10.dtd">
<svg version="1.0" xmlns="http://www.w3.org/2000/svg"
 width="300.000000pt" height="380.000000pt" viewBox="0 0 300.000000 380.000000"
 preserveAspectRatio="xMidYMid meet">
<metadata>
Created by potrace 1.10, written by Peter Selinger 2001-2011
</metadata>
<g transform="translate(0.000000,380.000000) scale(0.100000,-0.100000)"
fill="#000000" stroke="none">
<path d="M2199 3567 c-52 -56 -109 -118 -126 -137 l-31 -35 10 -110 c5 -60 14
-123 20 -138 10 -26 12 -27 29 -11 24 21 37 10 21 -17 -16 -25 -6 -42 18 -34
20 6 37 -10 21 -19 -9 -6 213 -231 243 -248 8 -4 39 -39 70 -78 31 -38 60 -70
64 -70 8 0 42 79 42 98 0 7 26 38 59 68 32 30 58 62 57 72 -1 14 6 17 37 15
l38 -3 -29 43 c-16 23 -36 54 -45 69 -9 15 -60 60 -113 100 -54 40 -103 78
-109 83 -9 8 -7 47 10 170 12 88 25 174 29 192 6 25 4 34 -11 42 -21 11 -174
51 -195 51 -7 0 -56 -46 -109 -103z m175 64 c17 -10 46 -22 63 -26 18 -3 35
-10 38 -15 3 -5 1 -39 -5 -77 -14 -89 -19 -131 -26 -228 l-5 -80 45 -28 c60
-37 193 -162 212 -200 13 -25 14 -31 2 -38 -19 -13 -50 0 -79 32 -14 16 -30
29 -36 29 -6 0 -13 8 -16 18 -2 11 -14 21 -26 25 -24 6 -27 -5 -7 -26 10 -10
11 -18 5 -24 -7 -7 -1 -15 19 -24 24 -10 29 -19 28 -41 -2 -32 -2 -32 26 -17
17 9 19 8 16 -8 -4 -20 -48 -26 -60 -8 -5 6 -8 5 -8 -3 0 -8 9 -16 20 -19 24
-6 25 -16 5 -37 -8 -8 -15 -22 -15 -30 0 -21 -13 -20 -34 3 -20 22 -54 18 -36
-4 11 -13 2 -28 -11 -19 -16 9 -10 54 6 54 14 0 14 3 0 24 -16 23 -15 25 7 37
13 7 25 13 29 12 3 -1 10 7 17 18 7 11 8 19 2 19 -5 0 -10 -4 -10 -10 0 -5 -6
-10 -14 -10 -7 0 -25 -9 -39 -20 l-26 -21 6 36 c4 22 2 35 -5 35 -6 0 -9 7 -6
15 4 8 1 15 -4 15 -11 0 -8 52 3 70 3 6 17 7 31 4 18 -5 24 -2 24 11 0 11 -5
15 -15 11 -18 -7 -162 138 -157 159 3 15 -51 11 -56 -4 -2 -6 -10 -11 -17 -11
-8 0 -19 -9 -25 -20 -13 -24 -10 -24 33 -6 24 9 35 10 43 2 6 -6 37 -35 68
-65 l57 -53 -14 -37 c-13 -34 -13 -44 0 -81 3 -8 7 -26 9 -39 1 -13 9 -31 17
-40 20 -23 26 -46 17 -61 -10 -17 -23 -8 -150 110 -56 51 -120 122 -142 156
-23 34 -52 67 -65 73 -12 6 -23 19 -24 28 0 10 -2 43 -3 73 -3 51 -1 57 31 87
18 17 29 34 25 37 -5 3 -21 -8 -36 -25 -28 -29 -46 -37 -46 -20 0 9 125 141
133 141 2 0 4 -13 3 -29 -1 -15 -6 -27 -11 -25 -6 3 -16 -5 -23 -16 -12 -19
-11 -20 5 -12 10 5 23 8 29 5 6 -2 10 8 10 24 0 16 3 47 8 70 7 38 10 42 27
33 16 -9 21 -5 33 24 15 36 35 55 37 34 5 -62 4 -157 -2 -175 -5 -13 -4 -23 3
-25 6 -2 8 -16 3 -36 -3 -18 -11 -30 -16 -26 -5 3 -9 -2 -9 -11 0 -11 5 -15
15 -11 8 3 15 2 15 -2 0 -7 -55 -34 -92 -46 -10 -3 -18 -11 -18 -17 0 -6 8 -9
18 -6 60 19 91 35 85 42 -5 4 -1 6 7 3 12 -4 16 8 18 65 3 50 0 72 -10 78 -10
7 -10 9 0 9 9 0 11 25 8 105 -3 58 -2 105 1 105 3 0 20 -9 37 -19z m159 -861
c-7 -27 -22 -35 -29 -16 -7 18 13 49 26 41 5 -3 6 -14 3 -25z"/>
<path d="M2460 3153 c0 -15 100 -104 141 -126 l34 -18 -30 23 c-16 12 -56 47
-87 77 -32 30 -58 49 -58 44z"/>
<path d="M2490 2992 c-27 -22 -19 -51 14 -45 18 4 23 11 22 34 -1 34 -6 35
-36 11z"/>
<path d="M1882 3349 c-63 -16 -127 -36 -143 -44 -72 -38 -152 -155 -224 -327
-23 -57 -61 -141 -85 -188 -23 -47 -34 -78 -25 -69 9 9 27 38 41 65 l23 49 -6
-40 c-6 -45 -17 -68 -41 -95 -9 -10 -25 -28 -34 -41 -20 -25 -24 -19 -8 12 21
38 0 18 -25 -24 -30 -53 -31 -57 -5 -57 13 0 20 7 20 20 0 12 6 20 13 18 22
-4 57 13 67 33 11 20 40 27 40 9 0 -21 26 -8 54 26 l29 36 23 -28 23 -29 34
40 c32 37 36 39 61 27 39 -17 40 -15 10 13 -15 14 -33 25 -40 25 -8 0 -14 5
-14 11 0 5 4 8 9 4 5 -3 12 -1 16 5 9 15 -21 12 -32 -2 -5 -7 -15 -32 -23 -55
-11 -36 -16 -41 -31 -32 -21 11 -16 33 14 67 11 12 18 22 14 22 -12 0 -81 -42
-116 -71 -20 -16 -44 -29 -54 -29 -16 0 -15 4 8 33 16 22 26 48 27 74 0 23 7
52 15 64 13 22 14 20 8 -26 -5 -46 -4 -49 10 -31 8 11 15 31 15 45 0 13 4 38
9 55 30 99 35 144 11 106 -9 -13 -10 -13 -10 0 0 9 11 31 24 50 13 19 26 46
30 60 24 79 124 176 174 167 15 -3 40 2 56 10 27 14 28 14 22 -3 -23 -59 -13
-201 12 -185 11 7 11 16 2 49 -14 45 -7 104 14 121 17 14 60 5 77 -15 10 -12
15 -10 29 14 9 15 19 42 22 60 6 39 7 39 -140 1z"/>
<path d="M2007 3275 c-15 -53 -18 -126 -7 -141 23 -26 20 -65 -6 -93 -26 -28
-29 -37 -14 -46 6 -3 10 -2 10 4 0 6 12 22 26 36 25 25 25 27 18 123 -4 53
-10 106 -14 117 -7 20 -7 20 -13 0z"/>
<path d="M1738 3255 c-46 -31 -82 -91 -102 -170 -9 -32 -16 -64 -16 -69 0 -18
29 29 30 47 0 30 46 120 74 146 30 28 36 10 6 -21 -24 -26 -43 -78 -65 -183
-10 -44 -22 -87 -27 -95 -8 -14 -4 17 9 63 3 11 -1 17 -11 17 -10 0 -17 -13
-21 -37 -3 -21 -18 -64 -34 -95 -16 -32 -27 -58 -26 -58 1 0 22 9 47 20 71 31
79 46 84 151 3 64 10 104 24 133 18 36 19 37 15 11 -3 -16 -9 -57 -14 -90 -4
-33 -11 -68 -16 -77 -4 -11 -3 -18 3 -18 6 0 8 -10 6 -22 -4 -16 1 -12 15 12
16 27 20 54 21 120 0 69 5 95 25 138 24 53 33 102 17 102 -4 0 -24 -11 -44
-25z"/>
<path d="M1889 3243 c-4 -28 4 -89 12 -91 11 -4 12 -42 2 -42 -13 0 -33 -52
-33 -86 0 -51 -13 -75 -73 -133 -53 -51 -54 -54 -45 -88 10 -38 3 -56 -13 -33
-9 13 -10 13 -6 0 2 -9 15 -15 33 -15 23 0 32 8 46 35 24 49 34 95 19 86 -6
-4 -11 -16 -11 -26 0 -28 -22 -71 -34 -67 -6 2 -13 14 -14 26 -2 14 0 21 6 17
6 -4 14 -1 18 5 5 8 3 9 -6 4 -10 -6 -12 -4 -7 9 4 10 7 22 7 27 0 4 6 6 14 3
8 -3 20 3 27 14 7 11 18 18 24 15 7 -2 18 10 25 27 11 26 11 33 1 40 -10 6
-10 9 -1 15 6 4 9 14 6 22 -3 8 -2 11 3 8 11 -6 21 7 26 36 6 32 15 36 15 8 0
-14 -4 -29 -9 -34 -15 -16 -17 -68 -3 -72 7 -3 12 4 12 16 0 11 8 36 17 55 17
37 17 37 -22 106 -9 16 -11 28 -5 34 14 14 12 60 -2 74 -14 14 -28 16 -29 5z"/>
<path d="M1797 3185 c-19 -40 -22 -59 -7 -50 14 9 12 -2 -6 -30 -9 -13 -14
-32 -12 -42 3 -14 8 -11 22 16 10 18 16 41 13 51 -2 9 2 28 9 41 7 13 13 30
14 37 0 23 -16 12 -33 -23z"/>
<path d="M2072 3048 c-14 -14 -16 -48 -2 -48 10 0 30 32 30 49 0 14 -13 14
-28 -1z"/>
<path d="M1781 3011 c-23 -45 -25 -51 -12 -51 10 0 44 80 37 87 -2 3 -14 -13
-25 -36z"/>
<path d="M2021 2996 c-9 -11 -10 -25 -2 -51 12 -44 5 -71 -14 -55 -14 12 -19
7 -35 -34 -6 -18 -6 -25 0 -21 6 3 10 13 10 21 0 8 4 12 10 9 5 -3 24 1 41 10
27 15 30 20 25 47 -3 17 -6 43 -6 59 0 32 -11 37 -29 15z"/>
<path d="M2101 2984 c-18 -23 -30 -74 -17 -74 2 0 20 7 41 15 20 9 45 13 56
10 31 -10 22 9 -20 43 l-40 32 -20 -26z"/>
<path d="M1920 2928 c0 -7 -16 -37 -36 -66 -20 -29 -34 -55 -31 -59 7 -7 49
19 78 48 24 24 27 89 4 89 -8 0 -15 -6 -15 -12z"/>
<path d="M2168 2890 c-61 -40 -72 -54 -60 -77 5 -10 12 -36 15 -58 4 -22 15
-57 26 -78 l19 -37 -1 42 c-1 24 -5 45 -8 48 -7 5 -13 62 -10 90 1 14 49 50
65 50 3 0 24 -24 47 -52 53 -69 129 -148 141 -148 10 0 53 -49 53 -60 0 -3 4
-10 8 -17 4 -6 3 -14 -3 -18 -5 -3 -10 -15 -10 -25 0 -10 -7 -26 -16 -35 -15
-14 -22 -12 -90 25 -69 38 -94 43 -94 20 0 -5 10 -12 23 -16 21 -6 94 -47 179
-101 44 -27 110 -30 148 -7 l25 15 -25 -6 c-19 -5 -21 -4 -10 4 8 6 24 8 36 5
26 -7 87 43 111 90 18 34 44 132 36 139 -2 3 -13 2 -24 0 -13 -4 -16 -8 -10
-12 8 -5 6 -23 -5 -62 -21 -69 -85 -134 -123 -124 -13 3 -27 2 -30 -4 -4 -5
-12 -6 -20 -2 -10 7 -10 11 1 22 7 8 14 21 16 29 2 8 10 19 18 23 8 4 14 19
14 32 0 14 5 25 10 25 6 0 10 5 10 11 0 6 14 27 30 46 17 18 30 40 30 48 0 8
5 15 10 15 6 0 10 -5 10 -11 0 -7 10 -9 25 -7 13 3 22 1 19 -3 -3 -5 2 -9 10
-9 9 0 16 5 16 10 0 6 5 9 12 8 15 -4 37 56 37 104 1 48 -31 72 -82 63 -28 -6
-39 -15 -60 -56 -15 -27 -27 -54 -27 -60 0 -18 59 31 75 62 19 35 50 38 59 7
9 -36 7 -88 -4 -88 -5 0 -10 8 -10 19 0 23 -25 45 -40 36 -7 -4 -9 -16 -7 -27
4 -14 2 -18 -9 -14 -8 3 -14 -1 -14 -9 0 -11 -8 -13 -30 -9 -29 6 -31 4 -70
-77 -60 -125 -99 -188 -122 -200 -27 -15 -45 3 -24 24 9 9 16 29 16 46 0 17 9
45 20 63 22 37 28 70 9 51 -9 -9 -23 -3 -57 23 -25 19 -48 34 -53 34 -4 0 -44
46 -89 103 -45 56 -85 103 -89 105 -4 1 -28 -11 -53 -28z"/>
<path d="M1898 2792 c-32 -15 -58 -33 -58 -41 0 -23 -40 -80 -68 -97 -15 -8
-39 -40 -54 -71 l-27 -55 24 6 c77 19 116 55 172 156 20 36 45 80 55 98 11 17
18 32 16 31 -2 -1 -29 -13 -60 -27z"/>
<path d="M2051 2755 c-12 -31 -21 -61 -21 -66 0 -22 -77 -175 -105 -207 -15
-18 -39 -39 -54 -46 -35 -18 -99 -27 -106 -15 -4 5 -12 9 -20 9 -8 0 -31 11
-51 25 -20 14 -40 25 -44 25 -10 0 -90 -106 -90 -118 0 -5 24 -13 53 -17 28
-5 54 -9 57 -10 57 -18 85 -23 92 -19 4 3 8 1 8 -5 0 -6 7 -8 15 -5 8 4 15 1
15 -5 0 -6 6 -8 13 -5 19 7 68 -13 95 -39 13 -12 26 -21 28 -19 10 8 64 -11
64 -22 0 -28 159 -25 220 4 25 11 38 19 30 17 -8 -3 -26 -7 -40 -11 -23 -7
-24 -6 -7 8 11 8 36 18 58 21 34 6 39 10 39 33 0 25 15 90 35 151 5 17 4 21
-5 16 -18 -11 -52 -96 -53 -135 -2 -33 -5 -36 -52 -52 -31 -11 -82 -17 -137
-18 -75 0 -94 4 -131 25 -45 25 -196 70 -204 61 -3 -3 -22 1 -42 9 -20 7 -48
16 -63 19 -33 7 -36 26 -9 50 18 17 22 16 75 -8 31 -14 70 -26 85 -26 50 0
115 35 152 81 18 24 37 46 41 50 4 3 23 40 41 83 19 42 38 77 43 76 5 -1 14
-11 20 -22 6 -11 13 -17 16 -12 6 10 -24 160 -34 169 -3 4 -15 -19 -27 -50z"/>
<path d="M1634 2615 c-49 -56 -52 -79 -8 -82 35 -3 45 10 46 66 1 28 15 37 29
17 4 -4 9 -4 13 2 3 5 -5 17 -17 25 -23 15 -25 13 -63 -28z m22 -42 c-3 -18
-24 -38 -32 -31 -3 4 -3 15 0 26 7 21 35 26 32 5z"/>
<path d="M1519 2615 c-8 -15 -22 -33 -32 -39 -15 -9 -21 -6 -37 14 -19 25 -19
25 -34 5 -20 -26 -20 -45 -1 -45 8 0 15 -4 15 -10 0 -5 9 -10 20 -10 11 0 20
-3 20 -7 -1 -17 -26 -39 -38 -35 -9 3 -13 -3 -11 -19 2 -13 0 -30 -5 -38 -5
-8 -4 -16 5 -22 21 -13 7 -18 -21 -7 -19 7 -21 11 -11 18 20 12 -38 40 -89 43
-22 1 -40 5 -40 8 0 4 -19 15 -42 24 l-43 18 35 13 35 14 -45 -4 c-48 -5 -71
-25 -63 -56 5 -20 31 -25 92 -20 14 1 21 -2 17 -9 -9 -13 26 -31 56 -29 14 1
45 -10 70 -25 57 -33 64 -34 72 -1 5 18 11 24 23 20 11 -5 14 -2 9 10 -4 9 -2
22 2 28 5 6 12 30 15 53 5 42 32 86 55 91 16 3 16 -15 0 -21 -8 -3 -6 -6 5 -6
22 -1 21 18 -2 48 l-18 24 -14 -28z"/>
<path d="M1289 2541 c-10 -13 -19 -28 -19 -32 0 -13 39 -5 60 13 10 9 26 18
36 20 35 6 23 23 -17 23 -32 0 -46 -5 -60 -24z"/>
<path d="M595 2520 c-53 -14 -89 -29 -107 -47 -22 -21 -30 -24 -42 -14 -22 18
-49 6 -91 -40 -35 -39 -42 -66 -10 -39 12 10 15 10 15 -1 0 -7 18 4 40 26 51
50 60 41 16 -16 -25 -33 -38 -64 -50 -123 -19 -95 -19 -95 -2 -70 14 19 42
109 53 167 5 26 49 67 72 67 5 0 21 12 35 27 24 25 27 26 66 14 35 -10 44 -10
53 2 14 17 70 37 105 37 l26 0 -28 -29 c-42 -44 -32 -66 29 -67 28 -1 58 -4
68 -9 23 -10 62 1 106 31 19 13 41 24 48 24 7 0 13 9 13 19 0 11 5 23 10 26
29 18 1 25 -92 24 -57 -1 -137 1 -178 5 -58 4 -93 1 -155 -14z m375 -39 c0
-14 -48 -24 -127 -27 -53 -2 -73 1 -73 10 0 7 3 16 7 19 10 10 193 8 193 -2z"/>
<path d="M1385 2490 c-10 -11 -16 -23 -13 -26 7 -6 48 27 48 38 0 14 -17 8
-35 -12z"/>
<path d="M1501 2453 c-2 -37 -8 -69 -15 -82 -4 -7 -6 -13 -5 -15 11 -7 92 -27
96 -23 5 5 -39 22 -46 18 -5 -3 -21 21 -21 32 0 5 4 6 9 3 13 -8 18 14 12 48
-7 33 -30 47 -30 19z"/>
<path d="M616 2428 c-9 -12 -16 -28 -16 -35 0 -15 51 -14 62 2 11 15 10 37 -2
30 -5 -3 -10 1 -10 9 0 23 -16 20 -34 -6z"/>
<path d="M1170 2434 c-12 -4 -16 -20 -17 -69 0 -36 3 -62 8 -59 12 7 11 -3 -2
-27 -5 -11 -21 -24 -35 -29 -13 -5 -24 -15 -24 -21 0 -6 7 -9 15 -6 8 4 17 1
21 -4 4 -6 16 -2 30 12 18 17 24 19 24 7 0 -26 44 -58 79 -58 27 0 42 9 75 46
30 32 47 43 59 38 9 -3 17 -2 17 3 0 21 -39 44 -92 55 -49 10 -59 9 -82 -5
-14 -10 -26 -26 -26 -37 0 -25 4 -25 39 1 23 17 35 19 57 12 40 -13 40 -29 -1
-43 -19 -6 -33 -16 -30 -21 4 -5 0 -10 -7 -10 -26 -3 -43 3 -51 17 -4 8 -13
14 -20 14 -35 1 -38 17 -13 55 19 28 26 51 26 86 0 51 -5 55 -50 43z"/>
<path d="M2075 2420 c3 -5 1 -10 -4 -10 -6 0 -11 -11 -11 -24 0 -14 -6 -31
-13 -38 -8 -7 -12 -19 -9 -27 3 -8 0 -11 -7 -7 -7 5 -9 1 -5 -8 3 -9 8 -16 11
-16 9 0 41 84 36 96 -2 6 0 15 6 19 14 8 14 25 0 25 -5 0 -7 -4 -4 -10z"/>
<path d="M540 2399 c0 -5 -15 -16 -34 -24 -30 -13 -36 -23 -54 -81 l-21 -67
27 -36 c15 -20 32 -39 38 -43 7 -4 15 -19 18 -33 4 -16 13 -25 27 -25 18 0 19
4 13 38 -4 20 -7 37 -8 37 0 0 -14 8 -31 17 -33 19 -41 46 -30 115 6 38 9 43
33 43 41 0 56 14 48 44 -6 25 -26 37 -26 15z"/>
<path d="M1013 2376 c-13 -6 -23 -14 -23 -18 0 -5 -7 -8 -15 -8 -7 0 -18 -7
-23 -16 -8 -14 -13 -14 -32 -4 -20 11 -25 10 -37 -6 -7 -10 -13 -14 -13 -8 0
5 -5 1 -11 -9 -13 -22 -2 -38 11 -17 7 11 10 7 10 -15 0 -46 -19 -103 -39
-117 -10 -7 -20 -24 -24 -37 -5 -20 0 -17 32 17 38 40 71 128 57 151 -3 5 3 7
14 4 11 -3 20 -10 20 -16 0 -6 3 -7 7 -4 11 12 33 -14 33 -39 0 -14 6 -24 14
-24 21 0 99 44 86 48 -6 2 -16 -1 -23 -7 -10 -7 -22 -5 -45 9 -29 18 -31 22
-21 43 7 12 11 24 10 26 -1 3 6 6 16 7 10 2 32 -10 49 -27 25 -24 35 -28 54
-21 l24 9 -24 13 c-14 7 -38 27 -55 45 -26 27 -33 30 -52 21z"/>
<path d="M667 2363 c-4 -3 -7 -15 -7 -26 0 -23 -40 -107 -51 -107 -5 0 -17
-10 -29 -22 -19 -20 -19 -23 -3 -32 12 -6 18 -5 21 4 3 7 13 21 23 31 11 11
19 24 19 29 0 6 14 37 30 70 21 42 26 60 17 60 -8 0 -17 -3 -20 -7z"/>
<path d="M305 2320 c-14 -22 -30 -40 -35 -40 -13 0 -44 -65 -58 -120 -6 -25
-14 -149 -17 -276 -3 -127 -10 -283 -15 -345 -11 -130 -14 -910 -4 -1042 6
-82 8 -88 31 -94 37 -9 191 3 207 16 9 8 16 48 20 124 10 154 33 351 57 481
11 59 18 110 16 112 -8 9 -26 -53 -46 -161 -27 -146 -42 -263 -56 -444 -2 -35
-10 -70 -16 -77 -8 -10 -35 -14 -85 -14 -72 0 -75 1 -85 27 -6 17 -11 174 -13
398 -2 247 -7 378 -14 392 -6 11 -10 22 -7 24 2 2 6 74 10 159 8 208 16 260
40 260 7 0 16 7 19 16 9 22 8 24 -10 17 -13 -5 -15 12 -12 146 2 83 -1 151 -6
151 -4 0 -6 9 -3 20 3 11 1 20 -3 20 -4 0 -4 15 0 33 5 17 12 47 17 66 10 41
30 51 36 19 3 -17 5 -14 6 11 0 21 14 52 36 82 35 48 44 79 25 79 -5 0 -21
-18 -35 -40z"/>
<path d="M726 2334 c-9 -23 -8 -24 14 -24 16 0 20 -7 20 -35 0 -25 4 -35 16
-35 12 0 14 7 9 33 -12 54 -24 77 -39 77 -7 0 -17 -7 -20 -16z"/>
<path d="M580 2300 c0 -17 -5 -21 -19 -17 -13 3 -21 -1 -24 -14 -6 -24 -5 -24
44 2 40 20 47 41 16 47 -12 2 -17 -3 -17 -18z"/>
<path d="M691 2269 c-7 -19 -7 -37 -2 -47 10 -17 11 -13 26 61 6 29 -12 19
-24 -14z"/>
<path d="M1501 2244 c-40 -17 -64 -41 -56 -54 4 -6 1 -9 -7 -8 -19 4 -10 -33
15 -60 33 -36 71 -52 119 -52 37 1 114 29 81 30 -22 0 -14 23 18 56 l31 32
-44 25 c-61 37 -118 48 -157 31z m108 -41 c17 -10 31 -23 31 -30 0 -14 -28
-43 -42 -43 -6 0 -6 -6 2 -15 11 -13 9 -15 -13 -15 -36 0 -90 25 -104 49 -16
26 -7 51 19 51 10 0 16 5 13 10 -10 17 61 11 94 -7z"/>
<path d="M1361 2215 c-11 -20 -21 -46 -21 -58 1 -22 1 -22 15 -2 15 19 37 86
31 92 -2 2 -13 -12 -25 -32z"/>
<path d="M1386 2192 c-9 -18 -15 -41 -13 -50 2 -11 9 -4 20 22 22 50 16 72 -7
28z"/>
<path d="M949 2208 c-9 -27 -17 -121 -12 -143 3 -17 12 -20 55 -20 49 0 72 15
49 30 -6 3 -11 1 -11 -4 0 -6 -4 -11 -10 -11 -5 0 -10 8 -10 17 0 13 -3 14
-11 6 -9 -9 -16 -8 -27 4 -14 14 -14 17 -1 27 8 6 13 19 11 30 -2 10 2 22 9
27 11 6 10 11 -6 23 -18 14 -34 20 -36 14z"/>
<path d="M642 2178 c3 -13 7 -30 9 -38 3 -10 -3 -14 -18 -13 -32 4 -29 -19 6
-40 34 -20 65 -23 40 -4 -11 9 -14 20 -8 40 9 32 -4 77 -22 77 -7 0 -9 -10 -7
-22z"/>
<path d="M1701 2156 c-17 -20 -28 -102 -13 -92 13 8 35 82 30 98 -2 6 -9 3
-17 -6z"/>
<path d="M1832 2143 l-33 -28 21 -22 c25 -27 52 -31 43 -6 -5 14 -1 15 31 10
48 -8 38 8 -11 18 -21 4 -32 10 -25 12 6 3 10 9 6 14 -3 5 -1 9 5 9 5 0 13 -5
16 -10 4 -7 12 -7 24 0 10 5 21 7 24 3 4 -3 20 -7 36 -8 18 -2 43 -15 61 -33
35 -35 37 -42 11 -42 -11 0 -18 -7 -18 -17 0 -44 -2 -45 -39 -38 -20 3 -48 11
-63 17 -14 7 -37 13 -51 14 -14 2 -31 12 -39 24 -13 19 -41 28 -41 13 0 -16
95 -93 108 -88 7 3 11 1 8 -4 -8 -13 77 -32 88 -21 6 6 24 10 40 10 21 0 27 3
18 9 -11 6 -9 17 9 53 19 40 20 48 8 74 -19 38 -52 53 -135 59 -65 6 -71 4
-102 -22z"/>
<path d="M1063 2136 c-23 -11 -31 -26 -14 -26 5 0 16 -3 24 -6 10 -3 16 3 19
20 6 28 4 29 -29 12z"/>
<path d="M397 2133 c-4 -3 -7 -15 -7 -25 0 -26 24 -17 28 10 3 21 -8 29 -21
15z"/>
<path d="M1740 2098 c-6 -24 -15 -53 -20 -65 -6 -15 -6 -23 1 -23 13 0 48 78
49 108 0 37 -19 25 -30 -20z"/>
<path d="M1110 2115 c-9 -10 -6 -16 9 -24 16 -9 22 -8 30 8 9 15 7 20 -9 24
-11 3 -24 -1 -30 -8z"/>
<path d="M1174 2115 c-10 -26 1 -36 61 -56 33 -11 67 -23 75 -26 8 -3 19 -5
23 -4 4 1 27 -10 50 -23 23 -13 62 -27 87 -31 25 -3 74 -15 110 -25 234 -69
291 -81 314 -68 26 15 9 26 -48 33 -30 4 -57 13 -59 20 -3 7 -26 17 -50 24
-25 6 -58 16 -74 22 -15 6 -28 10 -28 9 0 -1 -13 4 -30 10 -16 7 -58 12 -93
12 -36 0 -60 3 -57 9 4 5 -3 9 -15 9 -11 0 -38 9 -60 20 -22 11 -48 20 -58 20
-10 0 -28 9 -39 20 -13 12 -23 15 -25 8 -5 -13 -48 7 -48 22 0 16 -30 12 -36
-5z"/>
<path d="M2216 2100 c-10 -17 -16 -40 -13 -51 3 -10 1 -19 -4 -19 -18 0 -9
-49 12 -60 36 -20 46 -6 54 69 4 39 8 74 9 78 0 5 -8 9 -19 11 -14 2 -26 -7
-39 -28z"/>
<path d="M2125 2087 c-19 -45 -19 -77 -1 -77 9 0 16 17 21 51 9 62 0 74 -20
26z"/>
<path d="M769 2092 c-2 -7 -17 -15 -32 -16 -38 -5 -47 -16 -11 -16 36 0 58 13
52 31 -4 11 -6 11 -9 1z"/>
<path d="M1895 2072 c-14 -3 -5 -10 30 -23 59 -23 56 -22 49 -6 -2 7 -14 14
-26 14 -12 1 -24 6 -27 10 -3 5 -15 7 -26 5z"/>
<path d="M510 2043 c-1 -147 107 -483 155 -483 18 0 28 17 15 25 -44 27 -120
234 -127 346 -7 94 10 115 27 34 6 -30 13 -55 16 -55 2 0 4 25 4 55 0 54 -1
55 -37 70 -21 9 -41 21 -45 28 -5 7 -8 -1 -8 -20z"/>
<path d="M1165 2028 c-18 -41 -61 -42 -218 -8 l-38 8 4 -161 c2 -89 9 -184 15
-210 17 -70 49 -137 65 -137 12 0 9 13 -11 63 -14 34 -26 82 -26 107 -1 25 -5
51 -9 57 -9 14 -1 219 9 235 7 11 73 1 92 -14 7 -6 12 -7 12 -1 0 13 33 13 42
-1 4 -6 9 -4 14 7 3 9 12 17 20 17 14 0 54 38 54 52 0 16 -15 8 -25 -14z"/>
<path d="M688 1994 c-12 -4 -18 -22 -23 -78 -9 -90 -1 -126 31 -156 l24 -23
23 21 c13 12 35 22 50 22 24 0 27 4 27 33 0 29 -32 162 -41 172 -7 7 -74 13
-91 9z m77 -75 c4 -11 8 -40 10 -64 3 -43 2 -45 -31 -51 -22 -4 -40 -2 -50 6
-18 16 -14 56 5 52 9 -2 11 5 6 26 -11 52 45 80 60 31z"/>
<path d="M1910 1924 c1 -30 72 -51 175 -53 33 0 78 -6 100 -12 l40 -12 -3
-126 c-1 -69 -7 -142 -13 -162 -13 -43 -9 -82 8 -71 8 5 16 65 23 177 6 94 12
183 13 199 2 28 1 29 -53 32 -107 7 -245 22 -267 29 -13 4 -23 3 -23 -1z"/>
<path d="M1994 1785 c-3 -14 -10 -25 -14 -25 -4 0 -8 -6 -7 -12 0 -7 -1 -26
-2 -43 -1 -28 -3 -29 -15 -12 -10 13 -15 15 -18 5 -5 -15 30 -50 42 -43 7 4
19 48 35 127 5 29 -14 31 -21 3z"/>
<path d="M1112 1743 c-34 -2 -60 -8 -57 -12 5 -10 101 -4 143 9 31 9 34 9 -86
3z"/>
<path d="M1436 1705 c37 -18 56 -36 73 -67 14 -26 18 -44 12 -46 -18 -6 -13
-19 9 -25 24 -6 25 2 5 51 -26 60 -86 112 -131 112 -10 0 5 -11 32 -25z"/>
<path d="M770 1693 c-14 -3 -29 -9 -34 -14 -15 -14 55 -10 89 6 l30 13 -30 0
c-16 0 -41 -3 -55 -5z"/>
<path d="M262 1623 c-6 -15 -10 -35 -10 -43 0 -8 -3 -54 -7 -102 -4 -51 -3
-88 3 -88 10 0 11 9 12 100 1 35 5 85 10 110 10 53 7 62 -8 23z"/>
<path d="M750 1620 c0 -13 40 -13 60 0 11 7 5 10 -22 10 -21 0 -38 -4 -38 -10z"/>
<path d="M531 1544 c12 -13 27 -24 32 -24 5 0 20 -9 34 -20 19 -15 29 -17 39
-9 18 15 6 39 -20 39 -13 0 -26 3 -30 7 -3 4 -22 12 -42 19 l-36 12 23 -24z"/>
<path d="M1017 1551 c3 -10 22 -36 44 -57 21 -21 39 -43 39 -50 0 -6 11 -23
25 -38 25 -27 25 -27 127 -21 120 7 208 23 208 36 0 10 -5 11 -50 11 -110 0
-123 -2 -111 -15 9 -11 -2 -14 -60 -12 -66 1 -73 3 -96 30 -103 125 -136 155
-126 116z"/>
<path d="M831 1552 c-3 -40 53 -118 68 -94 4 6 21 9 41 6 53 -8 58 -22 6 -17
-53 6 -62 -9 -18 -30 31 -16 162 -32 162 -19 0 4 -15 16 -32 27 -18 10 -55 36
-81 56 -26 21 -54 36 -61 33 -17 -7 -72 20 -79 38 -4 10 -6 10 -6 0z"/>
<path d="M1524 1538 c-5 -8 -2 -9 9 -5 10 4 17 2 17 -5 0 -18 45 -128 52 -128
4 0 -5 34 -19 75 -25 71 -43 90 -59 63z"/>
<path d="M653 1516 c3 -10 118 -38 125 -31 2 2 -2 12 -8 22 -9 14 -25 19 -66
19 -35 1 -53 -3 -51 -10z"/>
<path d="M1437 1493 c-4 -3 3 -11 15 -17 12 -6 23 -18 26 -26 4 -12 2 -13 -9
-2 -7 6 -18 12 -23 12 -6 0 -3 -5 6 -11 10 -5 21 -9 25 -9 9 1 41 -118 58
-220 7 -47 27 -164 44 -261 51 -298 92 -619 89 -701 -1 -49 2 -82 9 -89 18
-18 157 -24 219 -9 l54 13 0 41 c0 51 -13 76 -25 49 -5 -10 -7 -24 -6 -31 1
-7 -8 -22 -21 -32 -20 -16 -35 -19 -107 -15 -46 3 -86 7 -89 10 -3 3 -7 26 -8
53 -2 44 -2 46 13 27 14 -18 15 -15 10 49 -4 38 -10 72 -14 75 -4 3 -8 26 -9
51 -2 80 -7 121 -16 126 -4 3 -6 10 -3 15 4 5 2 9 -4 9 -15 0 -23 43 -70 345
-24 149 -52 311 -63 360 -32 144 -72 218 -101 188z"/>
<path d="M631 1402 c-29 -50 -81 -180 -81 -204 0 -24 18 6 24 39 3 21 15 58
26 82 17 37 22 41 35 31 13 -11 15 -8 15 14 0 19 6 27 25 32 14 3 32 3 41 0 9
-4 22 -2 29 4 27 22 83 -36 66 -68 -12 -24 -24 -284 -25 -551 -1 -214 -2 -224
-21 -230 -11 -4 -27 -6 -35 -6 -8 1 -29 3 -45 3 -28 2 -31 5 -33 39 -2 20 -5
39 -7 43 -3 4 -12 113 -20 241 -14 217 -27 309 -42 309 -3 0 -3 -44 1 -97 6
-85 22 -360 30 -518 l3 -50 91 0 c50 0 94 3 98 7 4 4 8 135 9 290 2 269 16
484 35 556 7 28 5 34 -15 48 -15 10 -49 16 -87 17 -37 1 -67 6 -73 14 -7 9
-19 -2 -44 -45z"/>
<path d="M2190 1440 c13 -8 12 -10 -2 -10 -22 0 -22 -2 -5 -43 18 -41 22
-1038 6 -1070 -8 -13 -17 -17 -34 -13 -13 3 -27 2 -30 -4 -9 -14 -58 -12 -77
3 -18 14 -28 60 -17 79 4 7 4 15 -2 18 -5 4 -11 15 -13 26 -6 31 -19 127 -21
154 -4 47 -5 50 -13 50 -4 0 -4 -37 0 -82 5 -46 12 -126 16 -178 l7 -95 89 -3
c64 -2 94 1 110 12 l22 14 0 566 c-1 593 -1 586 -41 586 -5 0 -3 -5 5 -10z"/>
<path d="M1670 1400 c-8 -5 -28 -10 -45 -11 -27 0 -28 -1 -10 -10 23 -11 75 3
75 21 0 12 -1 12 -20 0z"/>
<path d="M1991 1371 c-31 -55 -55 -618 -27 -618 12 0 12 15 3 175 -2 28 0 52
5 52 4 0 8 -18 8 -40 0 -22 1 -43 2 -47 4 -16 29 -141 39 -198 6 -33 11 -107
12 -165 3 -107 8 -130 31 -130 15 0 15 0 -9 249 -8 79 -18 147 -23 150 -16 11
-34 51 -22 51 7 0 8 6 0 19 -10 20 -13 69 -13 216 0 58 6 91 19 120 l19 40 3
-62 c4 -90 17 -78 16 15 0 42 4 82 9 89 5 7 4 20 -2 31 -6 11 -7 23 -3 26 4 4
-5 5 -20 1 -24 -6 -27 -4 -30 22 l-3 28 -14 -24z m17 -95 c5 -22 -6 -66 -16
-66 -4 0 -7 20 -7 45 0 43 16 58 23 21z"/>
<path d="M646 1220 c5 -103 35 -320 44 -320 3 0 5 68 5 150 0 83 -3 150 -7
150 -5 0 -8 -4 -8 -10 0 -20 -16 -9 -18 13 -1 12 -6 42 -12 67 -7 37 -8 27 -4
-50z"/>
<path d="M1666 1063 c5 -42 24 -103 36 -117 12 -15 10 19 -4 51 -15 37 -15 38
-17 73 0 17 -5 30 -10 30 -5 0 -7 -17 -5 -37z"/>
<path d="M1875 998 c1 -13 7 -32 13 -43 11 -18 12 -15 10 19 -3 41 -24 63 -23
24z"/>
<path d="M1760 930 c-27 -9 -22 -12 23 -14 15 -1 26 2 24 8 -5 14 -18 15 -47
6z"/>
<path d="M667 873 c-4 -3 -7 -28 -7 -54 0 -32 5 -49 15 -53 11 -4 15 -20 15
-55 0 -27 3 -52 8 -54 5 -4 -1 208 -7 221 -2 4 -18 2 -24 -5z"/>
<path d="M1783 833 c-14 -30 -11 -38 12 -30 15 6 22 57 8 57 -5 0 -14 -12 -20
-27z"/>
<path d="M1912 360 l1 -105 7 85 c3 47 3 94 -1 105 -4 11 -7 -27 -7 -85z"/>
</g>
</svg>
